<svg width="4500" height="1808" xmlns="http://www.w3.org/2000/svg"><g stroke="null" stroke-linejoin="round" stroke-linecap="round" stroke-width="20" fill="none"><path stroke="#002d68" stroke-dashoffset="10895" stroke-dasharray="10895 10895" d="m1051.99817,989.81262c0,4 0,4 4,4c8,0 16.15491,1.92218 28,0c12.48572,-2.02618 28.03015,-7.82367 52.00012,-12c44.05762,-7.67627 88.203,-14.84076 160.00024,-28.00006c80.24768,-14.70813 152.00024,-28 212.00037,-44.00006c60,-16 92.17188,-27.70313 120.00012,-44.00006c20.12646,-11.78662 32,-24.00006 40.00012,-40.00006c8,-16 8,-32.00006 8,-52.00006c0,-16.00006 -8,-32.00006 -16.00012,-48.00012c-8,-16 -16,-28 -28,-40.00006c-12,-12 -23.04431,-21.66357 -36,-28c-22.72583,-11.11487 -36.60913,-15.06158 -44.00012,-12.00006c-5.22632,2.16479 -16.74402,6.77026 -24,12.00006c-9.1781,6.61523 -16.38171,19.90936 -20,36.00006c-4.47461,19.89917 -9.99512,55.78693 -12.00012,84.00012c-3.11914,43.88934 -4,80.00012 -4,120.00018c0,32.00006 -2.02051,64.08185 -4,88.00012c-2.00684,24.24823 -8.67188,43.68152 -16,60.00012c-8.82422,19.65027 -12,28 -24,40c-8,8 -19.73657,16.57727 -28.00012,20.00012c-11.68628,4.84058 -20.10706,4.91907 -24,4c-8.70496,-2.05493 -12,-4 -16,-8c-4,-4.00012 -9.94507,-11.29517 -12,-20.00012c-1.83801,-7.78601 -4,-15.05579 -4,-24c0,-8.94421 4,-16 8,-20c4,-4 11.18799,-9.026 16,-12c10.76001,-6.65009 18.7738,-5.83527 24,-8.00006c7.39099,-3.06146 16.34338,1.6817 24.00012,4c13.80334,4.17938 24.53198,14.27814 40,20.00006c16.77734,6.20642 40.09741,13.9707 60.00012,12c20.29688,-2.00977 44,-8 64.00012,-12c20,-4 36.84668,-10.85645 48,-20.00006c8.74939,-7.17279 13.24304,-16.32098 16.00012,-28.00006c2.05493,-8.70502 1.22974,-16.74402 -4.00012,-24c-6.61536,-9.17816 -11.25061,-12.82727 -20,-20.00006c-11.15332,-9.14349 -24,-12 -32,-16c-8,-4 -17.17163,-6.82843 -20,-4c-5.65686,5.65686 -2.90271,15.53986 0,24c6.61926,19.29218 8,32.00006 20,48.00006c12,16.00006 22.81067,26.16553 36,32.00012c15.08252,6.67212 32.00012,4 48.00012,0c16,-4 33.48804,-5.54041 48.00012,-16.00006c13.76721,-9.92285 20.4635,-19.85541 24,-32.00006c4.61108,-15.83472 8.12585,-29.64838 0,-44.00006c-5.57422,-9.84521 -10.7738,-13.83521 -16,-16c-3.69556,-1.53076 -8,4 -8,8c0,8 1.67542,17.67542 8,24c6.32458,6.32458 19.6311,9.98499 36,12.00006c19.8501,2.44366 44.28735,-2.76501 64.00012,-8.00006c24.45068,-6.49329 42.45532,-13.18793 52.00012,-24c5.91931,-6.70532 4,-16.00006 -4.00012,-20.00006c-8,-4 -20.51489,-7.47742 -32,-4c-13.80334,4.17932 -24,16.00006 -28,28.00006c-4,12 -5.53076,24.30457 -4,28.00006c4.32959,10.45251 12.34326,14.3183 20,12c13.80334,-4.17932 20.89087,-10.896 36,-24.00006c17.09399,-14.82556 32.77649,-31.5542 44.00012,-52.00006c12.91223,-23.52185 20.47571,-48.86163 28,-72.00012c5.53198,-17.01172 16,-28 12,-28c-4,0 -1.73071,16.21649 -4,28c-4.07349,21.15204 -18.95398,56.38477 -40,112.00018c-30.49524,80.58588 -59.88489,158.49615 -100.00012,220.00031c-21.85229,33.50366 -44.00012,56.00012 -56.00012,68.00012c-12,12 -24.93848,27.39099 -28,20c-2.16479,-5.2262 7.67017,-12.22656 16,-24c11.55139,-16.32678 31.88452,-40.09265 64.00012,-80.00012c67.75696,-84.19629 143.052,-188.74445 228.00037,-296.00043c98.90381,-124.87622 178.58716,-213.89508 240.00024,-292.00049c45.98926,-58.48941 71.75806,-104.10178 92.00024,-152.00021c11.8584,-28.0603 23.82056,-46.19672 28,-60.00009c1.15918,-3.82837 -0.41357,-4.37469 -4,0c-9.14355,11.15329 -13.43262,27.22864 -28,56.00009c-17.79541,35.14719 -37.18872,75.56683 -60.00024,140.00021c-21.10718,59.61957 -44.52661,135.89722 -56,196.00031c-8.3855,43.92822 -10.02832,76.93616 0,96.00012c6.71436,12.76404 20.42798,19.67609 36,16.00006c17.40991,-4.10992 36.93896,-19.09668 60.00024,-44.00006c25.05688,-27.05841 62.26636,-70.44861 100,-128.00024c38.36572,-58.51575 60.00024,-120.00018 76.00024,-184.00027c8,-32.00003 14.90625,-47.68933 12,-60.00009c-1.29956,-5.50552 -10.44409,-8.28772 -20,0c-13.51392,11.72064 -17.39697,35.59058 -32,88.00012c-22.13354,79.43634 -45.75146,167.76404 -60.00024,280.00049c-9.12354,71.86633 -17.62402,110.0174 -8,128.00018c5.33838,9.97504 24,8 36,8c16,0 36.70313,-6.4281 56.00024,-16c20.89453,-10.36426 36.31421,-27.75262 52,-48.00012c12.24854,-15.81061 20,-36.00006 24,-52.00006c4,-16 8,-24.00006 4,-24.00006c-4,0 0,4.00006 0,8.00006c0,0 -1.53076,8.3045 0,12c2.16479,5.22626 8.10693,7.08099 12,8c8.70508,2.05499 16.21411,5.83795 24,4c8.70532,-2.05499 14.77393,-5.83521 20.00024,-8c3.69556,-1.53076 8,-4 8,-4c0,0 1.89697,-4.59741 4,-8c4.70239,-7.60846 14.87598,-13.24091 28,-24.00006c11.15332,-9.14349 27.77368,-20.59094 48,-28.00006c11.87744,-4.35077 24,-8 28,-8c0,0 0,0 0,0c-8,8 -14.77026,16.74408 -20,24.00006c-3.30762,4.58905 -8,12 -8,16c0,0 4.34326,2.3183 12,0c13.80347,-4.17932 20.52808,-15.0213 36,-24c12.47412,-7.23895 22.85669,-16.84674 32.00024,-28.00006c3.58643,-4.37469 3.25586,-5.2298 -4,0c-4.58911,3.30762 -12,8.00006 -16,12c-4.00024,4.00006 -4.00024,8 -4.00024,8c4.00024,0 8.15527,5.92218 20.00024,4c12.48584,-2.02618 23.6311,-5.98492 40,-8c15.88013,-1.95496 28,0 40,4c12,4 22.16553,6.81073 28,20.00006c6.67212,15.08258 7.08789,29.10846 0,44.00006c-8.59546,18.05878 -22.02051,28.19641 -44,36.00006c-26.6543,9.46332 -47.89673,7.44354 -68,4c-27.87842,-4.77539 -48.00024,-12 -60.00024,-24.00006c-12,-12 -15.02563,-24.2887 -12,-40.00006c4.07349,-21.15198 21.71289,-45.69348 40,-68.00006c25.10498,-30.62292 58.98438,-54.63812 108.00024,-72.00012c66.81299,-23.66583 119.82813,-33.52484 184.00024,-40.00006c51.89038,-5.2359 85.27441,-7.11481 108.00024,4c12.95557,6.33643 21.22974,16.74402 16,24.00006c-6.61523,9.17816 -16,12 -28,16c-12,4 -28.32104,5.24298 -40,8c-8.70508,2.05499 -8,4 -8,4c8,-4 23.94873,-12.21082 40,-16c35.8916,-8.47284 71.98975,-22.73987 112.00024,-4c5.1228,2.39941 3.96997,3.51129 0,4c-16.36914,2.01508 -47.88501,9.99854 -100.00024,12c-79.94141,3.07013 -136.27002,4.39862 -172.00024,0c-16.3689,-2.01508 -28,-7.05573 -28,-16c0,-8.94427 10.896,-20.89099 24,-36.00006c14.82544,-17.09399 39.22461,-33.46442 76,-52.00012c43.16016,-21.75378 91.30444,-35.5647 144.00024,-44.00006c43.62598,-6.98352 76.00024,-12 100.00024,-12c20,0 32.32104,-2.75705 44,0c8.70508,2.05499 6.77026,8.74402 12,16c3.30762,4.58911 9.94507,11.29504 12,20.00006c1.83813,7.78601 0,12 0,16c0,0 0,0 0,0c-4,0 -16,-4 -32,-4c-20,0 -56.45093,0.79767 -96.00024,8c-61.09204,11.12543 -141.19775,32.71259 -200.00024,56.00012c-53.24756,21.08771 -85.17432,38.90613 -100,56.00006c-13.10425,15.10919 -13.84546,30.42584 -4.00024,36.00006c14.35181,8.12592 36.00806,4.49927 52.00024,4c64.09375,-2.00098 96,-4 124.00024,-4c20,0 35.02393,7.10913 36,16.00006c1.79956,16.39392 -9.75854,33.74506 -32,60.00006c-40.22119,47.47937 -100.17603,90.75751 -188.00049,136.00024c-119.5332,61.57751 -282.54443,117.08441 -456.00049,164.00018c-182.62598,49.396 -404.5415,76.90881 -596.0011,112.00024c-180.55725,33.09326 -332.00049,72.00012 -412.00061,96.00012l-36,20l-8,8"><animate id="a" attributeName="stroke-dashoffset" from="10895" to="0" begin="1s;repeat.click+0.25s" dur="3s" keyTimes="0;1" calcMode="spline" keySplines=".12,0,.2,0;"/><set attributeName="stroke-dashoffset" to="0" begin="a.end" end="repeat.click;indefinite"/></path><path stroke="#002d68" stroke-dashoffset="448" stroke-dasharray="448 448" d="M2532.23 937.7c-29.87 17.14-61.93 63.04-82.4 86.26-20.45 23.22-74.1 87.37-95.1 112.8-21.02 25.44-117.23 137.14-117.23 137.14"><animate id="b" attributeName="stroke-dashoffset" from="448" to="0" begin="a.end" dur=".15s" keyTimes="0;1" calcMode="spline" keySplines=".12,0,.39,0;"/><set attributeName="stroke-dashoffset" to="0" begin="b.end" end="repeat.click;indefinite"/></path><path stroke="#002d68" stroke-dashoffset="242" stroke-dasharray="242 242" d="M2603.8 894.98l238.59-37.95"><animate id="c" attributeName="stroke-dashoffset" from="242" to="0" begin="b.end" dur=".08s" keyTimes="0;1" calcMode="spline" keySplines=".12,0,.39,0;"/><set attributeName="stroke-dashoffset" to="0" begin="c.end" end="repeat.click;indefinite"/></path><path stroke="#0094ce" stroke-dashoffset="2676" stroke-dasharray="2676 2676" d="M931.19 1656.57c629.67-294.02 2637.62-387.52 2637.62-387.52" stroke-width="50"><animate id="d" attributeName="stroke-dashoffset" from="2676" to="0" begin="c.end+.25s" dur=".12s" keyTimes="0;1" calcMode="spline" keySplines=".12,0,.39,0;"/><set attributeName="stroke-dashoffset" to="0" begin="d.end" end="repeat.click;indefinite"/></path></g></svg>
