<svg width="4500" height="1808" xmlns="http://www.w3.org/2000/svg">
	<g stroke="null" stroke-linejoin="round" stroke-linecap="round" stroke-width="20" fill="none">
		<path stroke="#002d68" stroke-dashoffset="10895" stroke-dasharray="10895 10895" d="M1185.02+897.646C1190.95+916.538+1268.39+884.674+1272.03+883.408C1328.43+863.814+1834.59+602.945+1678.57+521.462C1499.29+427.829+1590.92+971.955+1407.01+1085.86C1386.77+1098.4+1344.55+1116.03+1321.54+1102.23C1276.18+1075.04+1338.68+1003.94+1371.7+1001.11C1513.07+989.002+1628.1+1136.01+1731.11+955.398C1774.74+878.914+1622.56+916.695+1650.03+991.3C1700.28+1127.76+1752.17+964.924+1759.63+918.569C1764.99+885.277+1746.15+1012.41+1779.44+1017.77C1783.04+1018.35+1801.6+914.981+1827.41+906.883C1847.01+900.732+1823.53+1015.3+1852.42+1008.81C1877.61+1003.15+1941.93+888.084+1924.65+864.168C1895.6+823.984+1849.6+1023.75+1897.35+1010.39C1929.06+1001.52+1967.3+909.609+1981.3+886.464C1984.93+880.476+2023.51+818.655+2023.43+823.584C2022.03+903.01+2011.26+1030.1+1981.92+1104.95C1965.47+1146.9+1886.71+1251.99+1893.87+1207.51C1927.53+998.357+2175.87+750.418+2286.34+570.313C2291.28+562.26+2314.74+519.447+2307.09+511.525C2295.46+499.471+2281.15+526.781+2279.1+533.378C2254.25+613.304+2251.59+704.335+2238.35+786.627C2236.56+797.752+2206.44+937.762+2219.64+937.995C2252.66+938.578+2412.2+589.641+2394.48+565.124C2389.97+558.874+2345.31+698.275+2343.63+705.67C2330.93+761.572+2292.58+884.097+2330.87+937.066C2357.24+973.562+2448.7+792.111+2471.52+788.377">
			<animate id="a" attributeName="stroke-dashoffset" from="10895" to="0" begin="1s;repeat.click+0.25s" dur="5s" keyTimes="0;1" calcMode="spline" keySplines=".12,0,.2,0;" />
			<set attributeName="stroke-dashoffset" to="0" begin="a.end" end="repeat.click;indefinite" />
		</path>

		<path stroke="#002d68" stroke-dashoffset="10895" stroke-dasharray="10895 10895" d="M2447.98+841.069C2423.43+913.983+2506.21+875.476+2526.82+842.461C2546.67+810.678+2561.74+790.068+2571.1+836.407C2576.78+864.543+2587.44+870.968+2605.67+843.853C2612.24+834.089+2649.97+785.724+2645.01+774.877C2629.34+740.568+2565.71+863.141+2600.06+878.721C2651.39+902+2725.89+767.489+2711.84+757.39C2703.85+751.652+2691.98+866.015+2691.69+870.874C2690.39+892.54+2632.68+1184.17+2587.2+1145.87C2548.76+1113.5+2783.97+812.502+2802.77+788.967C2824.76+761.435+2845.44+731.771+2868.92+705.479C2878.91+694.291+2910.81+662.862+2902.06+675.041C2708.67+944.102+3012.58+849.548+2979.45+743.974C2966.93+704.081+2763.22+887.275+2773.09+891.503C2800.65+903.301+2914.23+809.319+2935.43+795.252C2962.45+777.32+3047.44+733.301+3015.79+740.409C2986.82+746.918+2941.06+818.534+2981.79+834.718C3023+851.091+3114.85+743.171+3071.08+736.127C3064.15+735.011+3023.59+881.368+3081.1+779.158C3094.34+755.633+3166.37+752.36+3162.08+779.01C3160.5+788.816+3145.71+806.499+3155.52+808.077C3195.28+814.475+3213.88+679.406+3232.61+715.054C3257.97+763.297+3222.06+839.706+3236.05+892.577">
			<animate id="b" attributeName="stroke-dashoffset" from="10895" to="0" begin="a.end-1.6s;repeat.click+0.25s" dur="3s" keyTimes="0;1" calcMode="spline" keySplines=".12,0,.2,0;" />
			<set attributeName="stroke-dashoffset" to="0" begin="b.end" end="repeat.click;indefinite" />
		</path>


		<path stroke="#0094ce" stroke-dashoffset="2676" stroke-dasharray="2676 2676" d="M1038.17+1512.26C1223.61+1413.79+1517.6+1376.97+1722.53+1330.73C2379.89+1182.41+3089.51+1095.69+3763.06+1163.15" stroke-width="50">
			<animate id="d" attributeName="stroke-dashoffset" from="2676" to="0" begin="b.end-1.5s" dur=".75s" keyTimes="0;1" calcMode="spline" keySplines=".12,0,.39,0;" />
			<set attributeName="stroke-dashoffset" to="0" begin="d.end" end="repeat.click;indefinite" />
		</path>
	</g>
</svg>
